<?xml version="1.0" encoding="UTF-8" standalone="no"?>
<!-- Created with Inkscape (http://www.inkscape.org/) -->

<svg
   xmlns:dc="http://purl.org/dc/elements/1.1/"
   xmlns:cc="http://creativecommons.org/ns#"
   xmlns:rdf="http://www.w3.org/1999/02/22-rdf-syntax-ns#"
   xmlns:svg="http://www.w3.org/2000/svg"
   xmlns="http://www.w3.org/2000/svg"
   xmlns:sodipodi="http://sodipodi.sourceforge.net/DTD/sodipodi-0.dtd"
   xmlns:inkscape="http://www.inkscape.org/namespaces/inkscape"
   width="12mm"
   height="12mm"
   viewBox="0 0 12 12"
   version="1.1"
   id="svg8"
   sodipodi:docname="fav.svg"
   inkscape:version="0.92.1 r15371">
  <defs
     id="defs2" />
  <sodipodi:namedview
     id="base"
     pagecolor="#ffffff"
     bordercolor="#666666"
     borderopacity="1.0"
     inkscape:pageopacity="0.0"
     inkscape:pageshadow="2"
     inkscape:zoom="11.377083"
     inkscape:cx="22.677165"
     inkscape:cy="22.677165"
     inkscape:document-units="mm"
     inkscape:current-layer="layer1"
     showgrid="false"
     inkscape:window-width="1024"
     inkscape:window-height="715"
     inkscape:window-x="-8"
     inkscape:window-y="-8"
     inkscape:window-maximized="1" />
  <metadata
     id="metadata5">
    <rdf:RDF>
      <cc:Work
         rdf:about="">
        <dc:format>image/svg+xml</dc:format>
        <dc:type
           rdf:resource="http://purl.org/dc/dcmitype/StillImage" />
        <dc:title />
      </cc:Work>
    </rdf:RDF>
  </metadata>
  <g
     inkscape:label="Layer 1"
     inkscape:groupmode="layer"
     id="layer1"
     transform="translate(0,-285)">
    <path
       style="fill:#d4aa00;fill-opacity:1;stroke:none;stroke-width:0.25732532px;stroke-linecap:butt;stroke-linejoin:miter;stroke-opacity:1"
       d="M 5.7469492,285.49999 1.5,287.49026 l 1.7458304,0.81521 -0.031986,1.90949 h 0.00464 a 2.9966289,1.0965894 0 0 1 0.049012,-0.0294 2.9966289,1.0965894 0 0 1 0.1810835,-0.0872 2.9966289,1.0965894 0 0 1 0.2042992,-0.0803 2.9966289,1.0965894 0 0 1 0.2249357,-0.0725 2.9966289,1.0965894 0 0 1 0.2435082,-0.0641 2.9966289,1.0965894 0 0 1 0.2595014,-0.0548 2.9966289,1.0965894 0 0 1 0.2734309,-0.0446 2.9966289,1.0965894 0 0 1 0.2842649,-0.0348 2.9966289,1.0965894 0 0 1 0.2920037,-0.024 2.9966289,1.0965894 0 0 1 0.2971627,-0.0137 2.9966289,1.0965894 0 0 1 0.211006,-0.002 2.9966289,1.0965894 0 0 1 0.2992264,0.005 2.9966289,1.0965894 0 0 1 0.2961306,0.0166 2.9966289,1.0965894 0 0 1 0.290456,0.0269 2.9966289,1.0965894 0 0 1 0.2811695,0.0372 2.9966289,1.0965894 0 0 1 0.2703352,0.0475 2.9966289,1.0965894 0 0 1 0.2553742,0.0573 2.9966289,1.0965894 0 0 1 0.2388651,0.0661 2.9966289,1.0965894 0 0 1 0.2192606,0.0749 2.9966289,1.0965894 0 0 1 0.1981084,0.0823 2.9966289,1.0965894 0 0 1 0.1743767,0.0891 2.9966289,1.0965894 0 0 1 0.00722,0.005 h 0.010835 l -0.031986,-1.90949 1.2412731,-0.5797 v 2.07841 c -0.2814307,0.0792 -0.4870165,0.32296 -0.4870165,0.61642 v 0.12926 c 0,0.35787 0.3033811,0.6458 0.6804818,0.6458 h 0.1361996 c 0.3771007,0 0.6809977,-0.28793 0.6809977,-0.6458 v -0.12926 c 0,-0.30016 -0.214711,-0.54912 -0.5061052,-0.6223 v -2.30803 z m 0.042305,5.25306 c -1.8357979,0.003 -2.9357846,0.98688 -3.0355988,2.71589 -0.1015528,1.75908 0.716599,2.76898 2.4283758,2.99692 v -5e-4 c 0.7492524,0.0998 2.0830001,-0.0253 2.734309,-0.25656 0.2392289,-0.085 0.2910881,-0.1271 0.3441101,-0.27957 0.072611,-0.20879 0.04295,-0.69901 -0.047463,-0.78485 -0.047424,-0.0448 -0.1153071,-0.0441 -0.2873603,0.003 -0.7459516,0.20376 -1.0735804,0.26795 -1.5049018,0.29524 -1.2282027,0.0778 -1.900402,-0.32144 -1.9723137,-1.17165 l -0.027343,-0.32314 h 1.9475491 1.947034 l 0.1305247,-0.12388 c 0.1178962,-0.11187 0.1300085,-0.16452 0.1300085,-0.55179 0,-0.79233 -0.2287893,-1.40102 -0.6923475,-1.84095 -0.4864275,-0.46163 -1.1599231,-0.68095 -2.0945838,-0.67811 z m -0.053655,0.9807 c 0.1684793,-10e-4 0.3379526,0.0163 0.4782461,0.0529 0.4353774,0.11354 0.7697339,0.60226 0.7697339,1.12514 v 0.17919 H 5.7098038 4.4355127 v -0.16744 c 0,-0.46826 0.39578,-1.00815 0.8290631,-1.13101 0.135167,-0.0381 0.3025441,-0.0577 0.4710234,-0.0587 z"
       id="path840"
       inkscape:connector-curvature="0" />
  </g>
</svg>
