<?xml version="1.0" encoding="UTF-8" standalone="no"?>
<!-- Created with Inkscape (http://www.inkscape.org/) -->

<svg
   xmlns:dc="http://purl.org/dc/elements/1.1/"
   xmlns:cc="http://creativecommons.org/ns#"
   xmlns:rdf="http://www.w3.org/1999/02/22-rdf-syntax-ns#"
   xmlns:svg="http://www.w3.org/2000/svg"
   xmlns="http://www.w3.org/2000/svg"
   xmlns:sodipodi="http://sodipodi.sourceforge.net/DTD/sodipodi-0.dtd"
   xmlns:inkscape="http://www.inkscape.org/namespaces/inkscape"
   width="47.765999mm"
   height="11.619mm"
   viewBox="0 0 47.765999 11.619"
   version="1.1"
   id="svg8"
   sodipodi:docname="logo.svg"
   inkscape:version="0.92.1 r15371">
  <defs
     id="defs2" />
  <sodipodi:namedview
     id="base"
     pagecolor="#ffffff"
     bordercolor="#666666"
     borderopacity="1.0"
     inkscape:pageopacity="0.0"
     inkscape:pageshadow="2"
     inkscape:zoom="4.9797015"
     inkscape:cx="90.266455"
     inkscape:cy="21.957166"
     inkscape:document-units="mm"
     inkscape:current-layer="layer1"
     showgrid="false"
     inkscape:window-width="1024"
     inkscape:window-height="715"
     inkscape:window-x="-8"
     inkscape:window-y="-8"
     inkscape:window-maximized="1" />
  <metadata
     id="metadata5">
    <rdf:RDF>
      <cc:Work
         rdf:about="">
        <dc:format>image/svg+xml</dc:format>
        <dc:type
           rdf:resource="http://purl.org/dc/dcmitype/StillImage" />
        <dc:title />
      </cc:Work>
    </rdf:RDF>
  </metadata>
  <g
     inkscape:label="Layer 1"
     inkscape:groupmode="layer"
     id="layer1"
     transform="translate(0,-285.381)">
    <path
       style="fill:#808080;fill-opacity:1;stroke:none;stroke-width:0.99999994px;stroke-linecap:butt;stroke-linejoin:miter;stroke-opacity:1"
       d="M 16.078125 0.001953125 L 0 7.9414062 L 6.609375 11.193359 L 6.4882812 18.810547 L 6.5058594 18.810547 A 11.344655 4.3744222 0 0 1 6.6914062 18.693359 A 11.344655 4.3744222 0 0 1 7.3769531 18.345703 A 11.344655 4.3744222 0 0 1 8.1503906 18.025391 A 11.344655 4.3744222 0 0 1 9.0019531 17.736328 A 11.344655 4.3744222 0 0 1 9.9238281 17.480469 A 11.344655 4.3744222 0 0 1 10.90625 17.261719 A 11.344655 4.3744222 0 0 1 11.941406 17.083984 A 11.344655 4.3744222 0 0 1 13.017578 16.945312 A 11.344655 4.3744222 0 0 1 14.123047 16.849609 A 11.344655 4.3744222 0 0 1 15.248047 16.794922 A 11.344655 4.3744222 0 0 1 16.046875 16.785156 A 11.344655 4.3744222 0 0 1 17.179688 16.806641 A 11.344655 4.3744222 0 0 1 18.300781 16.873047 A 11.344655 4.3744222 0 0 1 19.400391 16.980469 A 11.344655 4.3744222 0 0 1 20.464844 17.128906 A 11.344655 4.3744222 0 0 1 21.488281 17.318359 A 11.344655 4.3744222 0 0 1 22.455078 17.546875 A 11.344655 4.3744222 0 0 1 23.359375 17.810547 A 11.344655 4.3744222 0 0 1 24.189453 18.109375 A 11.344655 4.3744222 0 0 1 24.939453 18.4375 A 11.344655 4.3744222 0 0 1 25.599609 18.792969 A 11.344655 4.3744222 0 0 1 25.626953 18.8125 L 25.667969 18.8125 L 25.546875 11.195312 L 30.246094 8.8828125 L 30.246094 17.173828 C 29.180652 17.489797 28.402344 18.462142 28.402344 19.632812 L 28.402344 20.148438 C 28.402344 21.576041 29.550886 22.724609 30.978516 22.724609 L 31.494141 22.724609 C 32.92177 22.724609 34.072266 21.576041 34.072266 20.148438 L 34.072266 19.632812 C 34.072266 18.43542 33.259411 17.442284 32.15625 17.150391 L 32.15625 7.9433594 L 16.078125 0.001953125 z M 16.238281 20.957031 C 9.2883072 20.968521 5.1239709 24.893794 4.7460938 31.791016 C 4.3616345 38.8082 7.4589984 42.836815 13.939453 43.746094 L 13.939453 43.744141 C 16.775977 44.142125 21.825287 43.64321 24.291016 42.720703 C 25.19669 42.381793 25.393019 42.21367 25.59375 41.605469 C 25.868641 40.772574 25.756348 38.817035 25.414062 38.474609 C 25.234524 38.295838 24.977532 38.298864 24.326172 38.486328 C 21.502144 39.299153 20.261805 39.555212 18.628906 39.664062 C 13.979169 39.974437 11.434353 38.381831 11.162109 34.990234 L 11.058594 33.701172 L 18.431641 33.701172 L 25.802734 33.701172 L 26.296875 33.207031 C 26.743207 32.760745 26.789062 32.550741 26.789062 31.005859 C 26.789062 27.845154 25.92291 25.41702 24.167969 23.662109 C 22.326449 21.82061 19.776725 20.945693 16.238281 20.957031 z M 16.035156 24.869141 C 16.672986 24.86503 17.314579 24.934188 17.845703 25.080078 C 19.493957 25.532979 20.759766 27.482552 20.759766 29.568359 L 20.759766 30.283203 L 15.9375 30.283203 L 11.113281 30.283203 L 11.113281 29.615234 C 11.113281 27.747316 12.611627 25.593607 14.251953 25.103516 C 14.763669 24.95139 15.397326 24.873251 16.035156 24.869141 z "
       transform="matrix(0.26458333,0,0,0.26458333,0,285.381)"
       id="path840" />
    <path
       style="opacity:1;fill:#ffcc00;fill-opacity:1;fill-rule:nonzero;stroke:none;stroke-width:0.0401942;stroke-miterlimit:4;stroke-dasharray:none;stroke-opacity:1"
       d="m 13.389112,288.4705 c -0.336975,0 -0.674083,0.0258 -0.736389,0.0775 -0.07803,0.0648 -0.08785,0.24353 -0.08785,1.58647 v 1.5136 l -0.252697,-0.18396 c -0.641885,-0.46781 -1.211983,-0.62484 -1.905827,-0.52401 -1.0765117,0.15645 -1.7626617,0.80849 -2.078943,1.97506 -0.1303708,0.48088 -0.1280412,1.74644 0.00413,2.22883 0.2686912,0.98057 0.8719222,1.60424 1.734261,1.79265 0.868693,0.18982 1.755145,-0.051 2.455147,-0.66714 0.135613,-0.11936 0.260573,-0.21704 0.27802,-0.21704 0.01745,0 0.03204,0.1655 0.03204,0.36793 v 0.36793 l 0.192753,0.0641 c 0.238612,0.0787 0.99159,0.0425 1.106909,-0.0532 0.07352,-0.061 0.08268,-0.51951 0.08268,-4.12327 0,-3.70687 -0.0075,-4.0612 -0.08785,-4.1279 -0.06231,-0.0517 -0.399414,-0.0775 -0.73639,-0.0775 z m 13.63896,0.43823 c -1.252331,0.009 -2.047549,0.30835 -2.795177,1.05315 -0.873538,0.87026 -1.180322,1.78427 -1.128615,3.36518 0.02352,0.71906 0.04093,0.82891 0.208257,1.3162 0.203612,0.59293 0.446899,0.99401 0.827857,1.3658 0.523134,0.51054 1.309825,0.85236 2.169893,0.94205 v -5e-4 c 0.60534,0.0635 0.641686,0.0639 1.143082,0.006 0.964292,-0.11091 1.807781,-0.44418 1.943034,-0.7679 0.144505,-0.34586 0.07937,-1.14475 -0.09353,-1.14774 -0.03728,-3.4e-4 -0.283528,0.10785 -0.546738,0.23977 -0.962017,0.48231 -1.936676,0.5257 -2.700094,0.12041 -0.741934,-0.39386 -1.101741,-1.18801 -1.101741,-2.43292 0,-0.97446 0.199623,-1.61793 0.655257,-2.11304 0.433922,-0.47152 0.872519,-0.65218 1.584918,-0.65218 0.546724,0 1.139584,0.16299 1.558043,0.42842 0.576893,0.36589 0.668177,0.31176 0.668177,-0.39638 0,-0.6396 -0.0522,-0.72403 -0.611333,-0.98596 -0.568611,-0.26641 -0.98637,-0.34656 -1.781287,-0.34055 z m 5.989299,2.0071 c -0.702477,0.0231 -1.426802,0.18317 -1.947685,0.44389 -0.23323,0.11676 -0.307054,0.18577 -0.365353,0.34314 -0.09165,0.24739 -0.03956,0.64826 0.102839,0.79066 0.101028,0.10112 0.105682,0.10096 0.38137,-0.009 1.250545,-0.49781 2.001507,-0.58846 2.551266,-0.308 0.268187,0.13682 0.373078,0.36076 0.402558,0.85783 l 0.02481,0.41238 h -0.744657 c -1.329549,0 -2.157968,0.22503 -2.655652,0.72142 -0.340878,0.33996 -0.469532,0.70995 -0.427881,1.22885 0.06567,0.81812 0.554709,1.32207 1.491382,1.53583 0.426873,0.0974 1.138751,0.0621 1.53479,-0.076 0.300429,-0.10475 0.850601,-0.42484 0.918292,-0.53435 0.07723,-0.12497 0.130923,-0.0452 0.146243,0.21809 0.0155,0.26617 0.0226,0.27768 0.202054,0.32451 0.202377,0.0528 0.9514,0.0276 1.053685,-0.0356 0.04721,-0.0292 0.06305,-0.58269 0.06305,-2.18024 0,-1.8101 -0.01312,-2.18483 -0.08527,-2.42777 -0.232322,-0.78232 -0.803402,-1.15636 -1.959054,-1.28209 -0.220961,-0.024 -0.45262,-0.0315 -0.686779,-0.0238 z m 7.543726,0.008 c -0.494001,3.5e-4 -0.76068,0.13359 -1.244367,0.62114 l -0.377756,0.38087 v -0.38087 c 0,-0.30845 -0.01769,-0.39066 -0.09302,-0.43098 -0.275291,-0.14732 -1.106387,-0.1292 -1.262973,0.0274 -0.06881,0.0688 -0.07986,0.45255 -0.07906,2.80088 4.47e-4,1.49675 0.0215,2.75363 0.04651,2.7931 0.02502,0.0395 0.126484,0.0922 0.225311,0.11732 0.2021,0.0514 1.140026,0.0303 1.283126,-0.029 0.08594,-0.0356 0.09302,-0.17126 0.09302,-1.77561 0,-1.94453 -0.02989,-1.78552 0.419613,-2.25722 0.427853,-0.44897 0.751391,-0.54782 1.335318,-0.40772 0.208849,0.0501 0.289023,0.0509 0.336413,0.004 0.06726,-0.0673 0.119499,-0.98938 0.0677,-1.19579 -0.04355,-0.17351 -0.307179,-0.26715 -0.749824,-0.26715 z m 4.413168,0.002 c -0.994357,0.002 -1.631455,0.23696 -2.210718,0.81597 -0.374153,0.37399 -0.571394,0.72377 -0.727088,1.29088 -0.127278,0.46363 -0.123418,1.58496 0.0072,2.06293 0.289502,1.05905 1.067263,1.68582 2.304251,1.85777 1.099029,0.1528 2.927048,-0.14608 3.090767,-0.50541 0.08615,-0.18904 0.07765,-0.72498 -0.01344,-0.84955 -0.068,-0.093 -0.09582,-0.096 -0.305925,-0.0357 -0.756134,0.21727 -1.07972,0.28427 -1.51257,0.31316 -1.226592,0.0819 -1.903899,-0.34145 -1.975588,-1.23455 l -0.02739,-0.34364 h 1.950268 1.950786 l 0.130225,-0.13023 c 0.118319,-0.11834 0.130741,-0.17356 0.130741,-0.58809 0,-1.1504 -0.4455,-1.9608 -1.297596,-2.36058 -0.474908,-0.22283 -0.837961,-0.293 -1.493964,-0.293 z m -28.288713,0.0889 c -0.314442,0.006 -0.614112,0.0498 -0.69143,0.12713 -0.06702,0.067 -0.07907,0.34835 -0.07907,1.81851 0,0.95647 0.02534,1.94173 0.05633,2.18953 0.07255,0.58018 0.257576,0.99309 0.580326,1.29501 0.311402,0.29128 0.509043,0.39476 0.925008,0.48524 0.860978,0.18725 1.614722,-0.009 2.369364,-0.61703 0.177843,-0.1433 0.33486,-0.26043 0.349332,-0.26043 0.01447,0 0.02635,0.15248 0.02635,0.33898 0,0.24014 0.02381,0.35867 0.08165,0.40669 0.11321,0.094 0.801214,0.12984 1.07487,0.0558 l 0.226343,-0.0615 v -2.80964 c 0,-2.53405 -0.0085,-2.81649 -0.08682,-2.88147 -0.09686,-0.0804 -1.105395,-0.10488 -1.362191,-0.0331 l -0.146244,0.0408 v 1.88256 1.88206 l -0.327628,0.2961 c -0.431432,0.39045 -0.721834,0.52813 -1.114144,0.52813 -0.40416,0 -0.698556,-0.1842 -0.862997,-0.54001 -0.109722,-0.23744 -0.115625,-0.3338 -0.132291,-2.12339 -0.01571,-1.68664 -0.02648,-1.87968 -0.106454,-1.92235 -0.136803,-0.073 -0.465872,-0.10401 -0.780314,-0.0977 z m 28.319201,0.94724 c 0.192918,0.006 0.376671,0.0395 0.501261,0.0971 0.412697,0.19106 0.664559,0.60891 0.664559,1.10226 v 0.23254 h -1.275889 -1.276409 v -0.17672 c 0,-0.49421 0.396436,-1.06407 0.83044,-1.19374 0.161036,-0.0481 0.36312,-0.0679 0.556038,-0.0615 z m -33.845995,0.21031 c 0.340583,-10e-4 0.69282,0.16886 1.101741,0.53332 l 0.304374,0.27131 v 0.94464 0.94411 l -0.342098,0.32867 c -0.188142,0.18066 -0.445295,0.37523 -0.571541,0.43254 -0.324926,0.14737 -0.803429,0.14102 -1.07797,-0.0145 -0.442232,-0.25048 -0.667143,-0.81127 -0.667143,-1.66553 0,-1.11768 0.461387,-1.77115 1.252637,-1.77459 z m 22.994461,2.16681 v 0.48368 0.48369 l -0.199472,0.18399 c -0.109669,0.10094 -0.306612,0.2381 -0.438216,0.30488 -0.325305,0.16513 -0.909825,0.19526 -1.166336,0.0605 -0.276767,-0.14544 -0.396359,-0.34248 -0.396359,-0.65371 0,-0.33552 0.122661,-0.51345 0.475424,-0.6904 0.233479,-0.11708 0.344925,-0.13444 0.993738,-0.15243 z"
       id="path866"
       inkscape:connector-curvature="0" />
  </g>
</svg>
